<svg width="295" height="50" viewBox="0 0 295 50" fill="none" xmlns="http://www.w3.org/2000/svg">
<path d="M24 0C10.7433 0.0470588 0 10.7765 0 24C0 37.2235 10.7433 47.9435 24 48C37.2567 47.9529 48 37.2235 48 24C48 10.7765 37.2567 0.0470588 24 0ZM32.4 44.0188C29.7354 45.1388 26.9102 45.7129 24 45.7224C21.0898 45.7129 18.2646 45.1388 15.6 44.0188C13.3323 43.0682 11.263 41.7412 9.43937 40.0941H17.4803C17.9717 40.0941 18.4063 39.7835 18.5575 39.3224C18.7087 38.8612 18.548 38.3529 18.1606 38.0612C16.7906 37.0447 14.4094 35.04 12.2362 32.6871L16.0441 25.0447H31.9654L35.7732 32.6871C33.6094 35.04 31.2189 37.0447 29.8488 38.0612C29.4614 38.3529 29.3008 38.8612 29.452 39.3224C29.6032 39.7835 30.0378 40.0941 30.5291 40.0941H38.5701C36.737 41.7412 34.6677 43.0588 32.4 44.0188ZM37.3701 30.8141L25.8803 7.72706C34.1197 8.65882 40.5354 15.5953 40.5354 24C40.5354 26.1082 39.1748 28.5365 37.3701 30.8141ZM38.3339 37.8353H33.6945C34.6299 37.0259 35.7354 36 36.8504 34.8424L38.3339 37.8353ZM30.8409 22.7765H17.1591L24 9.03529L30.8409 22.7765ZM10.6299 30.8141C8.8252 28.5365 7.46457 26.1082 7.46457 24C7.46457 15.5953 13.8803 8.65882 22.1197 7.72706L10.6299 30.8141ZM11.1591 34.8424C12.274 36 13.3795 37.0165 14.315 37.8353H9.67559L11.1591 34.8424ZM40.8094 37.7318L38.4756 33.0353C41.348 29.6565 42.8032 26.6259 42.8032 23.9906C42.8032 13.7129 34.3654 5.35529 24 5.35529C13.6346 5.35529 5.19685 13.7224 5.19685 24C5.19685 26.6353 6.65197 29.6659 9.52441 33.0447L7.19055 37.7412C5.87717 36.1412 4.8 34.3718 3.9874 32.4612C2.84409 29.7788 2.26772 26.9365 2.26772 24C2.26772 21.0635 2.84409 18.2212 3.97795 15.5388C5.07402 12.9506 6.65197 10.6259 8.65512 8.63059C10.6583 6.63529 12.9921 5.06353 15.5906 3.97176C18.2646 2.84235 21.0898 2.26824 24 2.25882C26.9102 2.26824 29.7354 2.84235 32.4095 3.97176C35.0079 5.06353 37.3417 6.63529 39.3449 8.63059C41.348 10.6259 42.926 12.9506 44.022 15.5388C45.1559 18.2212 45.7323 21.0635 45.7323 24C45.7323 26.9365 45.1559 29.7788 44.0126 32.4518C43.2 34.3624 42.1228 36.1318 40.8094 37.7318Z" fill="white"/>
<path d="M73.4844 20C73.2284 20 73.0044 19.912 72.8124 19.736C72.6364 19.544 72.5484 19.32 72.5484 19.064V2.192C72.5484 1.92 72.6364 1.696 72.8124 1.52C73.0044 1.344 73.2284 1.256 73.4844 1.256C73.8684 1.256 74.1484 1.416 74.3244 1.736L82.0044 17L89.5404 1.736C89.7324 1.416 90.0124 1.256 90.3804 1.256C90.6364 1.256 90.8524 1.344 91.0284 1.52C91.2044 1.696 91.2924 1.92 91.2924 2.192V19.064C91.2924 19.32 91.2044 19.544 91.0284 19.736C90.8524 19.912 90.6364 20 90.3804 20C90.1084 20 89.8764 19.912 89.6844 19.736C89.5084 19.544 89.4204 19.32 89.4204 19.064V5.48L82.7484 19.112C82.5724 19.416 82.3004 19.568 81.9324 19.568C81.5324 19.568 81.2444 19.376 81.0684 18.992L74.4204 5.696V19.064C74.4204 19.32 74.3244 19.544 74.1324 19.736C73.9564 19.912 73.7404 20 73.4844 20ZM101.575 20.144C100.439 20.144 99.4231 19.912 98.5271 19.448C97.6311 18.968 96.9191 18.272 96.3911 17.36C95.8791 16.448 95.6231 15.336 95.6231 14.024V7.784C95.6231 7.528 95.7111 7.312 95.8871 7.136C96.0631 6.96 96.2791 6.872 96.5351 6.872C96.8071 6.872 97.0311 6.96 97.2071 7.136C97.3831 7.312 97.4711 7.528 97.4711 7.784V14.024C97.4711 15.496 97.8791 16.592 98.6951 17.312C99.5111 18.032 100.535 18.392 101.767 18.392C102.551 18.392 103.255 18.24 103.879 17.936C104.519 17.632 105.023 17.216 105.391 16.688C105.759 16.16 105.943 15.56 105.943 14.888V7.784C105.943 7.512 106.023 7.296 106.183 7.136C106.359 6.96 106.583 6.872 106.855 6.872C107.127 6.872 107.351 6.96 107.527 7.136C107.703 7.296 107.791 7.512 107.791 7.784V19.064C107.791 19.352 107.703 19.584 107.527 19.76C107.351 19.92 107.127 20 106.855 20C106.583 20 106.359 19.92 106.183 19.76C106.023 19.584 105.943 19.352 105.943 19.064V18.248C105.415 18.84 104.775 19.304 104.023 19.64C103.271 19.976 102.455 20.144 101.575 20.144ZM113.041 25.616C112.753 25.616 112.521 25.528 112.345 25.352C112.185 25.192 112.105 24.968 112.105 24.68V13.352C112.121 12.104 112.417 10.984 112.993 9.992C113.585 8.984 114.377 8.192 115.369 7.616C116.377 7.04 117.505 6.752 118.753 6.752C120.033 6.752 121.177 7.048 122.185 7.64C123.193 8.216 123.985 9.008 124.561 10.016C125.153 11.024 125.449 12.168 125.449 13.448C125.449 14.712 125.161 15.848 124.585 16.856C124.025 17.864 123.257 18.664 122.281 19.256C121.305 19.832 120.201 20.12 118.969 20.12C117.897 20.12 116.921 19.896 116.041 19.448C115.177 18.984 114.481 18.376 113.953 17.624V24.68C113.953 24.968 113.865 25.192 113.689 25.352C113.529 25.528 113.313 25.616 113.041 25.616ZM118.753 18.44C119.681 18.44 120.513 18.224 121.249 17.792C121.985 17.36 122.561 16.768 122.977 16.016C123.409 15.248 123.625 14.392 123.625 13.448C123.625 12.488 123.409 11.632 122.977 10.88C122.561 10.128 121.985 9.536 121.249 9.104C120.513 8.656 119.681 8.432 118.753 8.432C117.841 8.432 117.017 8.656 116.281 9.104C115.545 9.536 114.969 10.128 114.553 10.88C114.137 11.632 113.929 12.488 113.929 13.448C113.929 14.392 114.137 15.248 114.553 16.016C114.969 16.768 115.545 17.36 116.281 17.792C117.017 18.224 117.841 18.44 118.753 18.44ZM137.281 20C137.009 20 136.785 19.912 136.609 19.736C136.433 19.56 136.345 19.336 136.345 19.064V2.192C136.345 1.92 136.433 1.696 136.609 1.52C136.785 1.344 137.009 1.256 137.281 1.256H142.081C143.265 1.256 144.313 1.52 145.225 2.048C146.137 2.56 146.849 3.272 147.361 4.184C147.873 5.096 148.129 6.152 148.129 7.352C148.129 8.52 147.873 9.56 147.361 10.472C146.849 11.368 146.137 12.08 145.225 12.608C144.313 13.12 143.265 13.376 142.081 13.376H138.217V19.064C138.217 19.336 138.129 19.56 137.953 19.736C137.777 19.912 137.553 20 137.281 20ZM138.217 11.576H142.081C142.897 11.576 143.625 11.4 144.265 11.048C144.905 10.68 145.401 10.176 145.753 9.536C146.121 8.896 146.305 8.168 146.305 7.352C146.305 6.504 146.121 5.76 145.753 5.12C145.401 4.48 144.905 3.976 144.265 3.608C143.625 3.24 142.897 3.056 142.081 3.056H138.217V11.576ZM156.284 20.12C154.988 20.12 153.836 19.84 152.828 19.28C151.836 18.704 151.052 17.912 150.476 16.904C149.916 15.896 149.636 14.744 149.636 13.448C149.636 12.136 149.9 10.984 150.428 9.992C150.972 8.984 151.716 8.192 152.66 7.616C153.604 7.04 154.692 6.752 155.924 6.752C157.14 6.752 158.196 7.032 159.092 7.592C160.004 8.136 160.708 8.896 161.204 9.872C161.7 10.848 161.948 11.96 161.948 13.208C161.948 13.464 161.868 13.672 161.708 13.832C161.548 13.976 161.34 14.048 161.084 14.048H151.388C151.484 14.912 151.748 15.68 152.18 16.352C152.612 17.008 153.18 17.528 153.884 17.912C154.588 18.28 155.388 18.464 156.284 18.464C156.86 18.464 157.436 18.368 158.012 18.176C158.604 17.968 159.076 17.712 159.428 17.408C159.604 17.264 159.804 17.192 160.028 17.192C160.252 17.176 160.444 17.232 160.604 17.36C160.812 17.552 160.916 17.76 160.916 17.984C160.932 18.208 160.844 18.4 160.652 18.56C160.124 19.008 159.452 19.384 158.636 19.688C157.82 19.976 157.036 20.12 156.284 20.12ZM155.924 8.408C154.692 8.408 153.676 8.792 152.876 9.56C152.076 10.312 151.596 11.296 151.436 12.512H160.22C160.092 11.296 159.644 10.312 158.876 9.56C158.124 8.792 157.14 8.408 155.924 8.408ZM170.389 20.12C169.157 20.12 168.053 19.832 167.077 19.256C166.101 18.664 165.325 17.864 164.749 16.856C164.189 15.848 163.909 14.712 163.909 13.448C163.909 12.168 164.197 11.024 164.773 10.016C165.365 9.008 166.165 8.216 167.173 7.64C168.181 7.048 169.317 6.752 170.581 6.752C171.845 6.752 172.973 7.048 173.965 7.64C174.973 8.216 175.765 9.008 176.341 10.016C176.933 11.024 177.237 12.168 177.253 13.448V19.088C177.253 19.36 177.165 19.584 176.989 19.76C176.813 19.92 176.589 20 176.317 20C176.045 20 175.821 19.92 175.645 19.76C175.469 19.584 175.381 19.36 175.381 19.088V17.624C174.837 18.392 174.133 19 173.269 19.448C172.405 19.896 171.445 20.12 170.389 20.12ZM170.581 18.44C171.509 18.44 172.333 18.224 173.053 17.792C173.789 17.36 174.365 16.768 174.781 16.016C175.213 15.248 175.429 14.392 175.429 13.448C175.429 12.488 175.213 11.632 174.781 10.88C174.365 10.128 173.789 9.536 173.053 9.104C172.333 8.656 171.509 8.432 170.581 8.432C169.669 8.432 168.845 8.656 168.109 9.104C167.373 9.536 166.789 10.128 166.357 10.88C165.925 11.632 165.709 12.488 165.709 13.448C165.709 14.392 165.925 15.248 166.357 16.016C166.789 16.768 167.373 17.36 168.109 17.792C168.845 18.224 169.669 18.44 170.581 18.44ZM185.743 6.872C186.16 6.872 186.464 7.08 186.656 7.496L191.864 18.824C191.976 19.048 191.984 19.264 191.888 19.472C191.808 19.664 191.656 19.816 191.432 19.928C190.888 20.168 190.488 20.032 190.232 19.52L185.816 9.632L181.28 19.496C181.168 19.736 180.992 19.896 180.752 19.976C180.528 20.04 180.296 20.016 180.056 19.904C179.832 19.792 179.672 19.64 179.576 19.448C179.496 19.24 179.504 19.024 179.6 18.8L184.88 7.496C185.072 7.08 185.36 6.872 185.743 6.872ZM200.525 20.24C199.421 20.24 198.453 20.032 197.621 19.616C196.789 19.2 196.133 18.632 195.653 17.912C195.189 17.176 194.957 16.32 194.957 15.344V7.784C194.973 7.512 195.069 7.296 195.245 7.136C195.421 6.96 195.637 6.872 195.893 6.872C196.149 6.872 196.365 6.96 196.541 7.136C196.717 7.312 196.805 7.536 196.805 7.808V11.216H200.717C201.757 11.216 202.669 11.4 203.453 11.768C204.253 12.136 204.869 12.656 205.301 13.328C205.749 14 205.973 14.776 205.973 15.656C205.973 16.536 205.741 17.328 205.277 18.032C204.829 18.72 204.197 19.264 203.381 19.664C202.565 20.048 201.613 20.24 200.525 20.24ZM200.525 18.536C201.565 18.536 202.429 18.296 203.117 17.816C203.805 17.336 204.149 16.616 204.149 15.656C204.149 14.76 203.845 14.064 203.237 13.568C202.629 13.072 201.789 12.824 200.717 12.824H196.805V15.344C196.805 16.272 197.141 17.04 197.813 17.648C198.501 18.24 199.405 18.536 200.525 18.536ZM209.978 20C209.706 20 209.482 19.92 209.306 19.76C209.146 19.584 209.066 19.352 209.066 19.064V7.808C209.066 7.52 209.146 7.296 209.306 7.136C209.482 6.96 209.706 6.872 209.978 6.872C210.25 6.872 210.466 6.96 210.626 7.136C210.802 7.296 210.89 7.52 210.89 7.808V12.56H219.362V7.808C219.362 7.52 219.45 7.296 219.626 7.136C219.802 6.96 220.026 6.872 220.298 6.872C220.57 6.872 220.786 6.96 220.946 7.136C221.106 7.296 221.186 7.52 221.186 7.808V19.064C221.186 19.352 221.106 19.584 220.946 19.76C220.786 19.92 220.57 20 220.298 20C220.026 20 219.802 19.92 219.626 19.76C219.45 19.584 219.362 19.352 219.362 19.064V14.216H210.89V19.064C210.89 19.352 210.802 19.584 210.626 19.76C210.466 19.92 210.25 20 209.978 20ZM231.472 20.12C230.192 20.12 229.048 19.832 228.04 19.256C227.032 18.68 226.24 17.888 225.664 16.88C225.088 15.872 224.8 14.728 224.8 13.448C224.8 12.152 225.088 11 225.664 9.992C226.24 8.984 227.032 8.192 228.04 7.616C229.048 7.04 230.192 6.752 231.472 6.752C232.752 6.752 233.888 7.04 234.88 7.616C235.888 8.192 236.68 8.984 237.256 9.992C237.832 11 238.128 12.152 238.144 13.448C238.144 14.728 237.848 15.872 237.256 16.88C236.68 17.888 235.888 18.68 234.88 19.256C233.888 19.832 232.752 20.12 231.472 20.12ZM231.472 18.44C232.4 18.44 233.232 18.224 233.968 17.792C234.704 17.36 235.28 16.768 235.696 16.016C236.112 15.264 236.32 14.408 236.32 13.448C236.32 12.488 236.112 11.632 235.696 10.88C235.28 10.112 234.704 9.512 233.968 9.08C233.232 8.648 232.4 8.432 231.472 8.432C230.544 8.432 229.712 8.648 228.976 9.08C228.24 9.512 227.656 10.112 227.224 10.88C226.808 11.632 226.6 12.488 226.6 13.448C226.6 14.408 226.808 15.264 227.224 16.016C227.656 16.768 228.24 17.36 228.976 17.792C229.712 18.224 230.544 18.44 231.472 18.44ZM247.594 20.12C246.33 20.12 245.202 19.832 244.21 19.256C243.234 18.664 242.458 17.864 241.882 16.856C241.322 15.848 241.042 14.712 241.042 13.448C241.042 12.168 241.314 11.024 241.858 10.016C242.402 9.008 243.146 8.216 244.09 7.64C245.034 7.048 246.122 6.752 247.354 6.752C249.354 6.752 250.978 7.52 252.226 9.056C252.402 9.248 252.466 9.456 252.418 9.68C252.37 9.888 252.234 10.072 252.01 10.232C251.834 10.36 251.634 10.408 251.41 10.376C251.202 10.328 251.018 10.208 250.858 10.016C249.93 8.96 248.762 8.432 247.354 8.432C246.458 8.432 245.666 8.648 244.978 9.08C244.306 9.512 243.778 10.104 243.394 10.856C243.026 11.608 242.842 12.472 242.842 13.448C242.842 14.408 243.042 15.264 243.442 16.016C243.842 16.768 244.402 17.36 245.122 17.792C245.842 18.224 246.666 18.44 247.594 18.44C248.874 18.44 249.906 18.096 250.69 17.408C250.882 17.248 251.082 17.16 251.29 17.144C251.498 17.128 251.69 17.192 251.866 17.336C252.058 17.512 252.162 17.712 252.178 17.936C252.21 18.16 252.138 18.352 251.962 18.512C250.794 19.584 249.338 20.12 247.594 20.12ZM256.971 20C256.683 20 256.451 19.92 256.275 19.76C256.115 19.584 256.035 19.36 256.035 19.088V7.808C256.035 7.536 256.115 7.312 256.275 7.136C256.451 6.96 256.683 6.872 256.971 6.872C257.243 6.872 257.459 6.96 257.619 7.136C257.795 7.312 257.883 7.536 257.883 7.808V8.336C258.331 7.824 258.859 7.432 259.467 7.16C260.075 6.872 260.747 6.728 261.483 6.728C262.379 6.728 263.171 6.928 263.859 7.328C264.563 7.728 265.123 8.28 265.539 8.984C265.987 8.28 266.587 7.728 267.339 7.328C268.091 6.928 268.931 6.728 269.859 6.728C270.803 6.728 271.635 6.952 272.355 7.4C273.091 7.848 273.659 8.48 274.059 9.296C274.475 10.112 274.683 11.072 274.683 12.176V19.088C274.683 19.36 274.595 19.584 274.419 19.76C274.259 19.92 274.043 20 273.771 20C273.499 20 273.275 19.92 273.099 19.76C272.923 19.584 272.835 19.36 272.835 19.088V12.176C272.835 11.04 272.539 10.144 271.947 9.488C271.355 8.816 270.595 8.48 269.667 8.48C268.675 8.48 267.859 8.816 267.219 9.488C266.595 10.144 266.291 11.024 266.307 12.128V12.176V19.088C266.307 19.36 266.219 19.584 266.043 19.76C265.883 19.92 265.667 20 265.395 20C265.123 20 264.899 19.92 264.723 19.76C264.547 19.584 264.459 19.36 264.459 19.088V12.176C264.459 11.04 264.163 10.144 263.571 9.488C262.979 8.816 262.219 8.48 261.291 8.48C260.299 8.48 259.483 8.808 258.843 9.464C258.203 10.104 257.883 10.944 257.883 11.984V19.088C257.883 19.36 257.795 19.584 257.619 19.76C257.459 19.92 257.243 20 256.971 20ZM284.481 20.144C283.345 20.144 282.329 19.912 281.433 19.448C280.537 18.968 279.825 18.272 279.297 17.36C278.785 16.448 278.529 15.336 278.529 14.024V7.784C278.529 7.528 278.617 7.312 278.793 7.136C278.969 6.96 279.185 6.872 279.441 6.872C279.713 6.872 279.937 6.96 280.113 7.136C280.289 7.312 280.377 7.528 280.377 7.784V14.024C280.377 15.496 280.785 16.592 281.601 17.312C282.417 18.032 283.441 18.392 284.673 18.392C285.457 18.392 286.161 18.24 286.785 17.936C287.425 17.632 287.929 17.216 288.297 16.688C288.665 16.16 288.849 15.56 288.849 14.888V7.784C288.849 7.512 288.929 7.296 289.089 7.136C289.265 6.96 289.489 6.872 289.761 6.872C290.033 6.872 290.257 6.96 290.433 7.136C290.609 7.296 290.697 7.512 290.697 7.784V19.064C290.697 19.352 290.609 19.584 290.433 19.76C290.257 19.92 290.033 20 289.761 20C289.489 20 289.265 19.92 289.089 19.76C288.929 19.584 288.849 19.352 288.849 19.064V18.248C288.321 18.84 287.681 19.304 286.929 19.64C286.177 19.976 285.361 20.144 284.481 20.144Z" fill="white"/>
<path d="M73.807 46C73.6597 46 73.5383 45.9523 73.443 45.857C73.3477 45.7617 73.3 45.6403 73.3 45.493V36.354C73.3 36.2067 73.3477 36.0853 73.443 35.99C73.5383 35.8947 73.6597 35.847 73.807 35.847C73.9543 35.847 74.0757 35.8947 74.171 35.99C74.2663 36.0853 74.314 36.2067 74.314 36.354V45.09H78.448V36.354C78.448 36.2067 78.4957 36.0853 78.591 35.99C78.6863 35.8947 78.8077 35.847 78.955 35.847C79.0937 35.847 79.2107 35.8947 79.306 35.99C79.41 36.0853 79.462 36.2067 79.462 36.354V45.09H83.583V36.354C83.583 36.2067 83.6307 36.0853 83.726 35.99C83.83 35.8947 83.9513 35.847 84.09 35.847C84.2373 35.847 84.3587 35.8947 84.454 35.99C84.5493 36.0853 84.597 36.2067 84.597 36.354V45.493C84.597 45.6403 84.5493 45.7617 84.454 45.857C84.3587 45.9523 84.2373 46 84.09 46H73.807ZM87.6824 46C87.535 46 87.418 45.9567 87.3314 45.87C87.2447 45.7747 87.2014 45.6533 87.2014 45.506V39.396C87.2014 39.24 87.2447 39.1187 87.3314 39.032C87.418 38.9367 87.535 38.889 87.6824 38.889C87.8384 38.889 87.9597 38.9367 88.0464 39.032C88.1417 39.1187 88.1894 39.24 88.1894 39.396V41.97H89.3464L91.9074 39.045C91.994 38.9497 92.1024 38.8977 92.2324 38.889C92.3624 38.8803 92.475 38.915 92.5704 38.993C92.6744 39.0883 92.7307 39.1967 92.7394 39.318C92.748 39.4307 92.709 39.539 92.6224 39.643L90.1784 42.399L92.7524 45.233C92.839 45.3283 92.8824 45.4367 92.8824 45.558C92.8824 45.6707 92.8304 45.7747 92.7264 45.87C92.6397 45.9567 92.5227 46 92.3754 46C92.2367 46 92.124 45.9523 92.0374 45.857L89.3334 42.88H88.1894V45.506C88.1894 45.6533 88.1417 45.7747 88.0464 45.87C87.9597 45.9567 87.8384 46 87.6824 46ZM97.2207 46.065C96.5274 46.065 95.9077 45.909 95.3617 45.597C94.8157 45.285 94.3867 44.856 94.0747 44.31C93.7627 43.764 93.6067 43.1443 93.6067 42.451C93.6067 41.749 93.7627 41.125 94.0747 40.579C94.3867 40.033 94.8157 39.604 95.3617 39.292C95.9077 38.98 96.5274 38.824 97.2207 38.824C97.914 38.824 98.5294 38.98 99.0667 39.292C99.6127 39.604 100.042 40.033 100.354 40.579C100.666 41.125 100.826 41.749 100.835 42.451C100.835 43.1443 100.674 43.764 100.354 44.31C100.042 44.856 99.6127 45.285 99.0667 45.597C98.5294 45.909 97.914 46.065 97.2207 46.065ZM97.2207 45.155C97.7234 45.155 98.174 45.038 98.5727 44.804C98.9714 44.57 99.2834 44.2493 99.5087 43.842C99.734 43.4347 99.8467 42.971 99.8467 42.451C99.8467 41.931 99.734 41.4673 99.5087 41.06C99.2834 40.644 98.9714 40.319 98.5727 40.085C98.174 39.851 97.7234 39.734 97.2207 39.734C96.718 39.734 96.2674 39.851 95.8687 40.085C95.47 40.319 95.1537 40.644 94.9197 41.06C94.6944 41.4673 94.5817 41.931 94.5817 42.451C94.5817 42.971 94.6944 43.4347 94.9197 43.842C95.1537 44.2493 95.47 44.57 95.8687 44.804C96.2674 45.038 96.718 45.155 97.2207 45.155ZM105.564 38.889C105.789 38.889 105.954 39.0017 106.058 39.227L108.879 45.363C108.939 45.4843 108.944 45.6013 108.892 45.714C108.848 45.818 108.766 45.9003 108.645 45.961C108.35 46.091 108.133 46.0173 107.995 45.74L105.603 40.384L103.146 45.727C103.085 45.857 102.99 45.9437 102.86 45.987C102.738 46.0217 102.613 46.0087 102.483 45.948C102.361 45.8873 102.275 45.805 102.223 45.701C102.179 45.5883 102.184 45.4713 102.236 45.35L105.096 39.227C105.2 39.0017 105.356 38.889 105.564 38.889ZM113.817 46.065C113.15 46.065 112.552 45.909 112.023 45.597C111.494 45.2763 111.074 44.843 110.762 44.297C110.459 43.751 110.307 43.1357 110.307 42.451C110.307 41.7577 110.463 41.138 110.775 40.592C111.096 40.046 111.529 39.617 112.075 39.305C112.621 38.9843 113.236 38.824 113.921 38.824C114.606 38.824 115.217 38.9843 115.754 39.305C116.3 39.617 116.729 40.046 117.041 40.592C117.362 41.138 117.526 41.7577 117.535 42.451V45.506C117.535 45.6533 117.487 45.7747 117.392 45.87C117.297 45.9567 117.175 46 117.028 46C116.881 46 116.759 45.9567 116.664 45.87C116.569 45.7747 116.521 45.6533 116.521 45.506V44.713C116.226 45.129 115.845 45.4583 115.377 45.701C114.909 45.9437 114.389 46.065 113.817 46.065ZM113.921 45.155C114.424 45.155 114.87 45.038 115.26 44.804C115.659 44.57 115.971 44.2493 116.196 43.842C116.43 43.426 116.547 42.9623 116.547 42.451C116.547 41.931 116.43 41.4673 116.196 41.06C115.971 40.6527 115.659 40.332 115.26 40.098C114.87 39.8553 114.424 39.734 113.921 39.734C113.427 39.734 112.981 39.8553 112.582 40.098C112.183 40.332 111.867 40.6527 111.633 41.06C111.399 41.4673 111.282 41.931 111.282 42.451C111.282 42.9623 111.399 43.426 111.633 43.842C111.867 44.2493 112.183 44.57 112.582 44.804C112.981 45.038 113.427 45.155 113.921 45.155ZM124.188 46C124.04 46 123.919 45.9523 123.824 45.857C123.728 45.7617 123.681 45.6403 123.681 45.493V36.354C123.681 36.2067 123.728 36.0853 123.824 35.99C123.919 35.8947 124.04 35.847 124.188 35.847H126.788C127.429 35.847 127.997 35.99 128.491 36.276C128.985 36.5533 129.37 36.939 129.648 37.433C129.925 37.927 130.064 38.499 130.064 39.149C130.064 39.7817 129.925 40.345 129.648 40.839C129.37 41.3243 128.985 41.71 128.491 41.996C127.997 42.2733 127.429 42.412 126.788 42.412H124.695V45.493C124.695 45.6403 124.647 45.7617 124.552 45.857C124.456 45.9523 124.335 46 124.188 46ZM124.695 41.437H126.788C127.23 41.437 127.624 41.3417 127.971 41.151C128.317 40.9517 128.586 40.6787 128.777 40.332C128.976 39.9853 129.076 39.591 129.076 39.149C129.076 38.6897 128.976 38.2867 128.777 37.94C128.586 37.5933 128.317 37.3203 127.971 37.121C127.624 36.9217 127.23 36.822 126.788 36.822H124.695V41.437ZM134.52 46.065C133.852 46.065 133.254 45.909 132.726 45.597C132.197 45.2763 131.777 44.843 131.465 44.297C131.161 43.751 131.01 43.1357 131.01 42.451C131.01 41.7577 131.166 41.138 131.478 40.592C131.798 40.046 132.232 39.617 132.778 39.305C133.324 38.9843 133.939 38.824 134.624 38.824C135.308 38.824 135.919 38.9843 136.457 39.305C137.003 39.617 137.432 40.046 137.744 40.592C138.064 41.138 138.229 41.7577 138.238 42.451V45.506C138.238 45.6533 138.19 45.7747 138.095 45.87C137.999 45.9567 137.878 46 137.731 46C137.583 46 137.462 45.9567 137.367 45.87C137.271 45.7747 137.224 45.6533 137.224 45.506V44.713C136.929 45.129 136.548 45.4583 136.08 45.701C135.612 45.9437 135.092 46.065 134.52 46.065ZM134.624 45.155C135.126 45.155 135.573 45.038 135.963 44.804C136.361 44.57 136.673 44.2493 136.899 43.842C137.133 43.426 137.25 42.9623 137.25 42.451C137.25 41.931 137.133 41.4673 136.899 41.06C136.673 40.6527 136.361 40.332 135.963 40.098C135.573 39.8553 135.126 39.734 134.624 39.734C134.13 39.734 133.683 39.8553 133.285 40.098C132.886 40.332 132.57 40.6527 132.336 41.06C132.102 41.4673 131.985 41.931 131.985 42.451C131.985 42.9623 132.102 43.426 132.336 43.842C132.57 44.2493 132.886 44.57 133.285 44.804C133.683 45.038 134.13 45.155 134.624 45.155ZM142.563 46.117C142 46.117 141.467 46.0087 140.964 45.792C140.462 45.5667 140.085 45.2893 139.833 44.96C139.747 44.8473 139.712 44.726 139.729 44.596C139.755 44.466 139.833 44.362 139.963 44.284C140.059 44.2233 140.171 44.2103 140.301 44.245C140.44 44.271 140.553 44.3317 140.639 44.427C140.856 44.6523 141.129 44.8387 141.458 44.986C141.788 45.1333 142.152 45.207 142.55 45.207C143.07 45.207 143.491 45.0987 143.811 44.882C144.141 44.6653 144.305 44.3577 144.305 43.959C144.305 43.6123 144.175 43.322 143.915 43.088C143.664 42.854 143.348 42.7283 142.966 42.711H142.303C142.139 42.711 142.004 42.672 141.9 42.594C141.796 42.5073 141.744 42.4033 141.744 42.282C141.744 42.1607 141.796 42.061 141.9 41.983C142.004 41.905 142.139 41.866 142.303 41.866H142.966C143.287 41.8573 143.547 41.749 143.746 41.541C143.946 41.333 144.045 41.0773 144.045 40.774C144.045 40.462 143.907 40.2063 143.629 40.007C143.361 39.8077 142.997 39.708 142.537 39.708C142.113 39.708 141.757 39.7773 141.471 39.916C141.185 40.0547 140.956 40.2323 140.782 40.449C140.687 40.553 140.574 40.618 140.444 40.644C140.323 40.6613 140.206 40.6353 140.093 40.566C139.981 40.5053 139.916 40.41 139.898 40.28C139.89 40.15 139.929 40.0287 140.015 39.916C140.293 39.5953 140.644 39.3267 141.068 39.11C141.502 38.8933 141.987 38.785 142.524 38.785C143.01 38.785 143.439 38.8717 143.811 39.045C144.193 39.2097 144.492 39.4393 144.708 39.734C144.925 40.02 145.033 40.3407 145.033 40.696C145.033 41.06 144.916 41.3807 144.682 41.658C144.457 41.9267 144.162 42.1217 143.798 42.243C144.24 42.3297 144.6 42.5333 144.877 42.854C145.155 43.1747 145.293 43.5517 145.293 43.985C145.293 44.3923 145.172 44.7563 144.929 45.077C144.695 45.3977 144.37 45.6533 143.954 45.844C143.547 46.026 143.083 46.117 142.563 46.117ZM147.629 46C147.473 46 147.348 45.9567 147.252 45.87C147.166 45.7747 147.122 45.649 147.122 45.493V39.383C147.131 39.2357 147.179 39.1187 147.265 39.032C147.361 38.9367 147.482 38.889 147.629 38.889H147.642H150.814C151.412 38.889 151.902 39.0623 152.283 39.409C152.673 39.7557 152.868 40.202 152.868 40.748C152.868 41.1207 152.782 41.4327 152.608 41.684C152.435 41.9267 152.205 42.1087 151.919 42.23C152.309 42.3773 152.617 42.607 152.842 42.919C153.068 43.2223 153.18 43.5733 153.18 43.972C153.18 44.3707 153.081 44.7217 152.881 45.025C152.691 45.3283 152.418 45.5667 152.062 45.74C151.716 45.9133 151.317 46 150.866 46H147.629ZM150.814 39.799H148.123V41.866H150.866C151.17 41.866 151.417 41.7663 151.607 41.567C151.798 41.3677 151.893 41.112 151.893 40.8C151.893 40.5227 151.789 40.2887 151.581 40.098C151.382 39.8987 151.126 39.799 150.814 39.799ZM148.123 45.077H150.866C151.256 45.077 151.577 44.9773 151.828 44.778C152.08 44.5787 152.205 44.2927 152.205 43.92C152.205 43.53 152.08 43.2353 151.828 43.036C151.577 42.828 151.256 42.724 150.866 42.724H148.123V45.077ZM158.103 46.078C157.488 46.078 156.937 45.9523 156.452 45.701C155.967 45.441 155.581 45.064 155.295 44.57C155.018 44.076 154.879 43.4737 154.879 42.763V39.383C154.879 39.2443 154.927 39.1273 155.022 39.032C155.117 38.9367 155.234 38.889 155.373 38.889C155.52 38.889 155.642 38.9367 155.737 39.032C155.832 39.1273 155.88 39.2443 155.88 39.383V42.763C155.88 43.5603 156.101 44.154 156.543 44.544C156.985 44.934 157.54 45.129 158.207 45.129C158.632 45.129 159.013 45.0467 159.351 44.882C159.698 44.7173 159.971 44.492 160.17 44.206C160.369 43.92 160.469 43.595 160.469 43.231V39.383C160.469 39.2357 160.512 39.1187 160.599 39.032C160.694 38.9367 160.816 38.889 160.963 38.889C161.11 38.889 161.232 38.9367 161.327 39.032C161.422 39.1187 161.47 39.2357 161.47 39.383V45.493C161.47 45.649 161.422 45.7747 161.327 45.87C161.232 45.9567 161.11 46 160.963 46C160.816 46 160.694 45.9567 160.599 45.87C160.512 45.7747 160.469 45.649 160.469 45.493V45.051C160.183 45.3717 159.836 45.623 159.429 45.805C159.022 45.987 158.58 46.078 158.103 46.078ZM164.444 46C164.288 46 164.162 45.9567 164.067 45.87C163.98 45.7747 163.937 45.6533 163.937 45.506V39.396C163.937 39.2487 163.98 39.1273 164.067 39.032C164.162 38.9367 164.288 38.889 164.444 38.889C164.591 38.889 164.708 38.9367 164.795 39.032C164.89 39.1273 164.938 39.2487 164.938 39.396V39.682C165.181 39.4047 165.467 39.1923 165.796 39.045C166.125 38.889 166.489 38.811 166.888 38.811C167.373 38.811 167.802 38.9193 168.175 39.136C168.556 39.3527 168.86 39.6517 169.085 40.033C169.328 39.6517 169.653 39.3527 170.06 39.136C170.467 38.9193 170.922 38.811 171.425 38.811C171.936 38.811 172.387 38.9323 172.777 39.175C173.176 39.4177 173.483 39.76 173.7 40.202C173.925 40.644 174.038 41.164 174.038 41.762V45.506C174.038 45.6533 173.99 45.7747 173.895 45.87C173.808 45.9567 173.691 46 173.544 46C173.397 46 173.275 45.9567 173.18 45.87C173.085 45.7747 173.037 45.6533 173.037 45.506V41.762C173.037 41.1467 172.877 40.6613 172.556 40.306C172.235 39.942 171.824 39.76 171.321 39.76C170.784 39.76 170.342 39.942 169.995 40.306C169.657 40.6613 169.492 41.138 169.501 41.736V41.762V45.506C169.501 45.6533 169.453 45.7747 169.358 45.87C169.271 45.9567 169.154 46 169.007 46C168.86 46 168.738 45.9567 168.643 45.87C168.548 45.7747 168.5 45.6533 168.5 45.506V41.762C168.5 41.1467 168.34 40.6613 168.019 40.306C167.698 39.942 167.287 39.76 166.784 39.76C166.247 39.76 165.805 39.9377 165.458 40.293C165.111 40.6397 164.938 41.0947 164.938 41.658V45.506C164.938 45.6533 164.89 45.7747 164.795 45.87C164.708 45.9567 164.591 46 164.444 46ZM179.475 46.078C178.86 46.078 178.31 45.9523 177.824 45.701C177.339 45.441 176.953 45.064 176.667 44.57C176.39 44.076 176.251 43.4737 176.251 42.763V39.383C176.251 39.2443 176.299 39.1273 176.394 39.032C176.49 38.9367 176.607 38.889 176.745 38.889C176.893 38.889 177.014 38.9367 177.109 39.032C177.205 39.1273 177.252 39.2443 177.252 39.383V42.763C177.252 43.5603 177.473 44.154 177.915 44.544C178.357 44.934 178.912 45.129 179.579 45.129C180.004 45.129 180.385 45.0467 180.723 44.882C181.07 44.7173 181.343 44.492 181.542 44.206C181.742 43.92 181.841 43.595 181.841 43.231V39.383C181.841 39.2357 181.885 39.1187 181.971 39.032C182.067 38.9367 182.188 38.889 182.335 38.889C182.483 38.889 182.604 38.9367 182.699 39.032C182.795 39.1187 182.842 39.2357 182.842 39.383V45.493C182.842 45.649 182.795 45.7747 182.699 45.87C182.604 45.9567 182.483 46 182.335 46C182.188 46 182.067 45.9567 181.971 45.87C181.885 45.7747 181.841 45.649 181.841 45.493V45.051C181.555 45.3717 181.209 45.623 180.801 45.805C180.394 45.987 179.952 46.078 179.475 46.078ZM185.14 45.87C185.036 45.7747 184.984 45.6707 184.984 45.558C184.993 45.4453 185.036 45.337 185.114 45.233L186.648 43.296C186.198 43.1573 185.838 42.906 185.569 42.542C185.301 42.1693 185.166 41.7273 185.166 41.216C185.166 40.7653 185.27 40.3667 185.478 40.02C185.695 39.6647 185.994 39.3873 186.375 39.188C186.757 38.9887 187.194 38.889 187.688 38.889H190.002C190.158 38.889 190.28 38.9367 190.366 39.032C190.462 39.1187 190.509 39.24 190.509 39.396V45.506C190.501 45.6533 190.449 45.7747 190.353 45.87C190.267 45.9567 190.15 46 190.002 46C189.864 46 189.747 45.9567 189.651 45.87C189.565 45.7747 189.521 45.649 189.521 45.493V43.543H187.727L185.881 45.818C185.777 45.948 185.647 46.0087 185.491 46C185.344 46 185.227 45.9567 185.14 45.87ZM187.688 42.685H189.521V39.812H187.688C187.246 39.812 186.878 39.942 186.583 40.202C186.289 40.4533 186.141 40.7913 186.141 41.216C186.141 41.6753 186.289 42.035 186.583 42.295C186.878 42.555 187.246 42.685 187.688 42.685ZM197.556 46C197.417 46 197.296 45.9523 197.192 45.857C197.096 45.753 197.049 45.6317 197.049 45.493V36.354C197.049 36.2067 197.096 36.0853 197.192 35.99C197.296 35.8947 197.417 35.847 197.556 35.847C197.764 35.847 197.915 35.9337 198.011 36.107L202.171 44.375L206.253 36.107C206.357 35.9337 206.508 35.847 206.708 35.847C206.846 35.847 206.963 35.8947 207.059 35.99C207.154 36.0853 207.202 36.2067 207.202 36.354V45.493C207.202 45.6317 207.154 45.753 207.059 45.857C206.963 45.9523 206.846 46 206.708 46C206.56 46 206.435 45.9523 206.331 45.857C206.235 45.753 206.188 45.6317 206.188 45.493V38.135L202.574 45.519C202.478 45.6837 202.331 45.766 202.132 45.766C201.915 45.766 201.759 45.662 201.664 45.454L198.063 38.252V45.493C198.063 45.6317 198.011 45.753 197.907 45.857C197.811 45.9523 197.694 46 197.556 46ZM212.941 46.065C212.273 46.065 211.675 45.909 211.147 45.597C210.618 45.2763 210.198 44.843 209.886 44.297C209.582 43.751 209.431 43.1357 209.431 42.451C209.431 41.7577 209.587 41.138 209.899 40.592C210.219 40.046 210.653 39.617 211.199 39.305C211.745 38.9843 212.36 38.824 213.045 38.824C213.729 38.824 214.34 38.9843 214.878 39.305C215.424 39.617 215.853 40.046 216.165 40.592C216.485 41.138 216.65 41.7577 216.659 42.451V45.506C216.659 45.6533 216.611 45.7747 216.516 45.87C216.42 45.9567 216.299 46 216.152 46C216.004 46 215.883 45.9567 215.788 45.87C215.692 45.7747 215.645 45.6533 215.645 45.506V44.713C215.35 45.129 214.969 45.4583 214.501 45.701C214.033 45.9437 213.513 46.065 212.941 46.065ZM213.045 45.155C213.547 45.155 213.994 45.038 214.384 44.804C214.782 44.57 215.094 44.2493 215.32 43.842C215.554 43.426 215.671 42.9623 215.671 42.451C215.671 41.931 215.554 41.4673 215.32 41.06C215.094 40.6527 214.782 40.332 214.384 40.098C213.994 39.8553 213.547 39.734 213.045 39.734C212.551 39.734 212.104 39.8553 211.706 40.098C211.307 40.332 210.991 40.6527 210.757 41.06C210.523 41.4673 210.406 41.931 210.406 42.451C210.406 42.9623 210.523 43.426 210.757 43.842C210.991 44.2493 211.307 44.57 211.706 44.804C212.104 45.038 212.551 45.155 213.045 45.155ZM221.907 46.065C221.223 46.065 220.612 45.909 220.074 45.597C219.546 45.2763 219.125 44.843 218.813 44.297C218.51 43.751 218.358 43.1357 218.358 42.451C218.358 41.7577 218.506 41.138 218.8 40.592C219.095 40.046 219.498 39.617 220.009 39.305C220.521 38.9843 221.11 38.824 221.777 38.824C222.861 38.824 223.74 39.24 224.416 40.072C224.512 40.176 224.546 40.2887 224.52 40.41C224.494 40.5227 224.421 40.6223 224.299 40.709C224.204 40.7783 224.096 40.8043 223.974 40.787C223.862 40.761 223.762 40.696 223.675 40.592C223.173 40.02 222.54 39.734 221.777 39.734C221.292 39.734 220.863 39.851 220.49 40.085C220.126 40.319 219.84 40.6397 219.632 41.047C219.433 41.4543 219.333 41.9223 219.333 42.451C219.333 42.971 219.442 43.4347 219.658 43.842C219.875 44.2493 220.178 44.57 220.568 44.804C220.958 45.038 221.405 45.155 221.907 45.155C222.601 45.155 223.16 44.9687 223.584 44.596C223.688 44.5093 223.797 44.4617 223.909 44.453C224.022 44.4443 224.126 44.479 224.221 44.557C224.325 44.6523 224.382 44.7607 224.39 44.882C224.408 45.0033 224.369 45.1073 224.273 45.194C223.641 45.7747 222.852 46.065 221.907 46.065ZM227.117 46C226.961 46 226.835 45.9567 226.74 45.87C226.653 45.7747 226.61 45.6533 226.61 45.506V39.396C226.61 39.2487 226.653 39.1273 226.74 39.032C226.835 38.9367 226.961 38.889 227.117 38.889C227.264 38.889 227.381 38.9367 227.468 39.032C227.563 39.1273 227.611 39.2487 227.611 39.396V39.682C227.853 39.4047 228.139 39.1923 228.469 39.045C228.798 38.889 229.162 38.811 229.561 38.811C230.046 38.811 230.475 38.9193 230.848 39.136C231.229 39.3527 231.532 39.6517 231.758 40.033C232 39.6517 232.325 39.3527 232.733 39.136C233.14 38.9193 233.595 38.811 234.098 38.811C234.609 38.811 235.06 38.9323 235.45 39.175C235.848 39.4177 236.156 39.76 236.373 40.202C236.598 40.644 236.711 41.164 236.711 41.762V45.506C236.711 45.6533 236.663 45.7747 236.568 45.87C236.481 45.9567 236.364 46 236.217 46C236.069 46 235.948 45.9567 235.853 45.87C235.757 45.7747 235.71 45.6533 235.71 45.506V41.762C235.71 41.1467 235.549 40.6613 235.229 40.306C234.908 39.942 234.496 39.76 233.994 39.76C233.456 39.76 233.014 39.942 232.668 40.306C232.33 40.6613 232.165 41.138 232.174 41.736V41.762V45.506C232.174 45.6533 232.126 45.7747 232.031 45.87C231.944 45.9567 231.827 46 231.68 46C231.532 46 231.411 45.9567 231.316 45.87C231.22 45.7747 231.173 45.6533 231.173 45.506V41.762C231.173 41.1467 231.012 40.6613 230.692 40.306C230.371 39.942 229.959 39.76 229.457 39.76C228.919 39.76 228.477 39.9377 228.131 40.293C227.784 40.6397 227.611 41.0947 227.611 41.658V45.506C227.611 45.6533 227.563 45.7747 227.468 45.87C227.381 45.9567 227.264 46 227.117 46ZM242.278 46.065C241.576 46.065 240.952 45.9133 240.406 45.61C239.869 45.298 239.444 44.869 239.132 44.323C238.829 43.777 238.677 43.153 238.677 42.451C238.677 41.7403 238.82 41.1163 239.106 40.579C239.401 40.033 239.804 39.604 240.315 39.292C240.826 38.98 241.416 38.824 242.083 38.824C242.742 38.824 243.314 38.9757 243.799 39.279C244.293 39.5737 244.674 39.9853 244.943 40.514C245.212 41.0427 245.346 41.645 245.346 42.321C245.346 42.4597 245.303 42.5723 245.216 42.659C245.129 42.737 245.017 42.776 244.878 42.776H239.626C239.678 43.244 239.821 43.66 240.055 44.024C240.289 44.3793 240.597 44.661 240.978 44.869C241.359 45.0683 241.793 45.168 242.278 45.168C242.59 45.168 242.902 45.116 243.214 45.012C243.535 44.8993 243.79 44.7607 243.981 44.596C244.076 44.518 244.185 44.479 244.306 44.479C244.427 44.4703 244.531 44.5007 244.618 44.57C244.731 44.674 244.787 44.7867 244.787 44.908C244.796 45.0293 244.748 45.1333 244.644 45.22C244.358 45.4627 243.994 45.6663 243.552 45.831C243.11 45.987 242.685 46.065 242.278 46.065ZM242.083 39.721C241.416 39.721 240.865 39.929 240.432 40.345C239.999 40.7523 239.739 41.2853 239.652 41.944H244.41C244.341 41.2853 244.098 40.7523 243.682 40.345C243.275 39.929 242.742 39.721 242.083 39.721ZM247.676 49.042C247.52 49.042 247.395 48.9943 247.299 48.899C247.213 48.8123 247.169 48.691 247.169 48.535V42.399C247.178 41.723 247.338 41.1163 247.65 40.579C247.971 40.033 248.4 39.604 248.937 39.292C249.483 38.98 250.094 38.824 250.77 38.824C251.464 38.824 252.083 38.9843 252.629 39.305C253.175 39.617 253.604 40.046 253.916 40.592C254.237 41.138 254.397 41.7577 254.397 42.451C254.397 43.1357 254.241 43.751 253.929 44.297C253.626 44.843 253.21 45.2763 252.681 45.597C252.153 45.909 251.555 46.065 250.887 46.065C250.307 46.065 249.778 45.9437 249.301 45.701C248.833 45.4497 248.456 45.1203 248.17 44.713V48.535C248.17 48.691 248.123 48.8123 248.027 48.899C247.941 48.9943 247.824 49.042 247.676 49.042ZM250.77 45.155C251.273 45.155 251.724 45.038 252.122 44.804C252.521 44.57 252.833 44.2493 253.058 43.842C253.292 43.426 253.409 42.9623 253.409 42.451C253.409 41.931 253.292 41.4673 253.058 41.06C252.833 40.6527 252.521 40.332 252.122 40.098C251.724 39.8553 251.273 39.734 250.77 39.734C250.276 39.734 249.83 39.8553 249.431 40.098C249.033 40.332 248.721 40.6527 248.495 41.06C248.27 41.4673 248.157 41.931 248.157 42.451C248.157 42.9623 248.27 43.426 248.495 43.842C248.721 44.2493 249.033 44.57 249.431 44.804C249.83 45.038 250.276 45.155 250.77 45.155ZM259.663 46.065C258.978 46.065 258.367 45.909 257.83 45.597C257.301 45.2763 256.881 44.843 256.569 44.297C256.265 43.751 256.114 43.1357 256.114 42.451C256.114 41.7577 256.261 41.138 256.556 40.592C256.85 40.046 257.253 39.617 257.765 39.305C258.276 38.9843 258.865 38.824 259.533 38.824C260.616 38.824 261.496 39.24 262.172 40.072C262.267 40.176 262.302 40.2887 262.276 40.41C262.25 40.5227 262.176 40.6223 262.055 40.709C261.959 40.7783 261.851 40.8043 261.73 40.787C261.617 40.761 261.517 40.696 261.431 40.592C260.928 40.02 260.295 39.734 259.533 39.734C259.047 39.734 258.618 39.851 258.246 40.085C257.882 40.319 257.596 40.6397 257.388 41.047C257.188 41.4543 257.089 41.9223 257.089 42.451C257.089 42.971 257.197 43.4347 257.414 43.842C257.63 44.2493 257.934 44.57 258.324 44.804C258.714 45.038 259.16 45.155 259.663 45.155C260.356 45.155 260.915 44.9687 261.34 44.596C261.444 44.5093 261.552 44.4617 261.665 44.453C261.777 44.4443 261.881 44.479 261.977 44.557C262.081 44.6523 262.137 44.7607 262.146 44.882C262.163 45.0033 262.124 45.1073 262.029 45.194C261.396 45.7747 260.607 46.065 259.663 46.065ZM264.872 46C264.716 46 264.59 45.9567 264.495 45.87C264.408 45.7747 264.365 45.6533 264.365 45.506V39.396C264.365 39.2487 264.408 39.1273 264.495 39.032C264.59 38.9367 264.716 38.889 264.872 38.889C265.019 38.889 265.136 38.9367 265.223 39.032C265.318 39.1273 265.366 39.2487 265.366 39.396V39.682C265.609 39.4047 265.895 39.1923 266.224 39.045C266.553 38.889 266.917 38.811 267.316 38.811C267.801 38.811 268.23 38.9193 268.603 39.136C268.984 39.3527 269.288 39.6517 269.513 40.033C269.756 39.6517 270.081 39.3527 270.488 39.136C270.895 38.9193 271.35 38.811 271.853 38.811C272.364 38.811 272.815 38.9323 273.205 39.175C273.604 39.4177 273.911 39.76 274.128 40.202C274.353 40.644 274.466 41.164 274.466 41.762V45.506C274.466 45.6533 274.418 45.7747 274.323 45.87C274.236 45.9567 274.119 46 273.972 46C273.825 46 273.703 45.9567 273.608 45.87C273.513 45.7747 273.465 45.6533 273.465 45.506V41.762C273.465 41.1467 273.305 40.6613 272.984 40.306C272.663 39.942 272.252 39.76 271.749 39.76C271.212 39.76 270.77 39.942 270.423 40.306C270.085 40.6613 269.92 41.138 269.929 41.736V41.762V45.506C269.929 45.6533 269.881 45.7747 269.786 45.87C269.699 45.9567 269.582 46 269.435 46C269.288 46 269.166 45.9567 269.071 45.87C268.976 45.7747 268.928 45.6533 268.928 45.506V41.762C268.928 41.1467 268.768 40.6613 268.447 40.306C268.126 39.942 267.715 39.76 267.212 39.76C266.675 39.76 266.233 39.9377 265.886 40.293C265.539 40.6397 265.366 41.0947 265.366 41.658V45.506C265.366 45.6533 265.318 45.7747 265.223 45.87C265.136 45.9567 265.019 46 264.872 46ZM277.316 46C277.16 46 277.035 45.9567 276.939 45.87C276.853 45.7747 276.809 45.649 276.809 45.493V39.383C276.818 39.2357 276.866 39.1187 276.952 39.032C277.048 38.9367 277.169 38.889 277.316 38.889H277.329H280.501C281.099 38.889 281.589 39.0623 281.97 39.409C282.36 39.7557 282.555 40.202 282.555 40.748C282.555 41.1207 282.469 41.4327 282.295 41.684C282.122 41.9267 281.892 42.1087 281.606 42.23C281.996 42.3773 282.304 42.607 282.529 42.919C282.755 43.2223 282.867 43.5733 282.867 43.972C282.867 44.3707 282.768 44.7217 282.568 45.025C282.378 45.3283 282.105 45.5667 281.749 45.74C281.403 45.9133 281.004 46 280.553 46H277.316ZM280.501 39.799H277.81V41.866H280.553C280.857 41.866 281.104 41.7663 281.294 41.567C281.485 41.3677 281.58 41.112 281.58 40.8C281.58 40.5227 281.476 40.2887 281.268 40.098C281.069 39.8987 280.813 39.799 280.501 39.799ZM277.81 45.077H280.553C280.943 45.077 281.264 44.9773 281.515 44.778C281.767 44.5787 281.892 44.2927 281.892 43.92C281.892 43.53 281.767 43.2353 281.515 43.036C281.264 42.828 280.943 42.724 280.553 42.724H277.81V45.077ZM287.829 46.065C287.162 46.065 286.564 45.909 286.035 45.597C285.507 45.2763 285.086 44.843 284.774 44.297C284.471 43.751 284.319 43.1357 284.319 42.451C284.319 41.7577 284.475 41.138 284.787 40.592C285.108 40.046 285.541 39.617 286.087 39.305C286.633 38.9843 287.249 38.824 287.933 38.824C288.618 38.824 289.229 38.9843 289.766 39.305C290.312 39.617 290.741 40.046 291.053 40.592C291.374 41.138 291.539 41.7577 291.547 42.451V45.506C291.547 45.6533 291.5 45.7747 291.404 45.87C291.309 45.9567 291.188 46 291.04 46C290.893 46 290.772 45.9567 290.676 45.87C290.581 45.7747 290.533 45.6533 290.533 45.506V44.713C290.239 45.129 289.857 45.4583 289.389 45.701C288.921 45.9437 288.401 46.065 287.829 46.065ZM287.933 45.155C288.436 45.155 288.882 45.038 289.272 44.804C289.671 44.57 289.983 44.2493 290.208 43.842C290.442 43.426 290.559 42.9623 290.559 42.451C290.559 41.931 290.442 41.4673 290.208 41.06C289.983 40.6527 289.671 40.332 289.272 40.098C288.882 39.8553 288.436 39.734 287.933 39.734C287.439 39.734 286.993 39.8553 286.594 40.098C286.196 40.332 285.879 40.6527 285.645 41.06C285.411 41.4673 285.294 41.931 285.294 42.451C285.294 42.9623 285.411 43.426 285.645 43.842C285.879 44.2493 286.196 44.57 286.594 44.804C286.993 45.038 287.439 45.155 287.933 45.155Z" fill="white"/>
</svg>
